<svg width="28" height="29" viewBox="0 0 28 29" fill="none" xmlns="http://www.w3.org/2000/svg">
<path fill-rule="evenodd" clip-rule="evenodd" d="M0 6.36587C4.83743 -1.08433 13.878 0.0637173 13.878 0.0637173C25.9347 2.05521 28.2079 10.8708 27.9858 15.2913C27.2599 29.7427 11.0488 31.7032 5.35607 23.0956C4.05617 21.13 3.52786 18.7236 4.11001 16.44C4.13902 16.3262 4.17045 16.213 4.20429 16.1003C5.97053 10.2003 11.8384 9.84824 13.6425 11.4202L9.434 15.4768C9.434 15.4768 9.37906 19.0682 11.3569 20.2C13.3348 21.3315 15.45 22.2128 17.8125 20.8371C20.1749 19.4613 22.5648 13.379 21.4111 9.33399C20.2573 5.28881 11.4668 2.81647 8.60988 2.81647C5.75296 2.81647 0.0476884 6.6731 0.0476884 6.6731" fill="white"/>
<path fill-rule="evenodd" clip-rule="evenodd" d="M13.0052 13.7588C12.2085 14.235 10.5451 15.3314 10.5695 17.3574C10.5939 19.3834 12.2294 20.6657 13.8018 20.9653C15.1479 21.2215 17.8428 20.8708 19.4882 18.447C20.5696 16.8539 22.3451 11.964 18.7372 7.88936C16.998 5.9249 14.3807 4.39557 11.0915 4.1624C5.84352 3.79056 2.42729 6.02445 0.999713 7.06657C0.634027 7.33358 0.116924 7.12063 0.0474784 6.67319C0.0173709 6.47892 0.136702 6.32289 0.224388 6.14708C0.89994 4.79422 3.59204 1.41536 9.59355 0.254569C17.5978 -0.625143 22.7971 3.88242 24.005 9.34464C24.6963 12.4703 23.7059 16.6689 21.5759 19.3399C19.3908 21.9531 16.2577 22.7649 13.4996 22.2105C10.6976 21.6474 7.04408 18.4916 8.90284 13.823C10.4012 10.4982 12.6388 10.4716 13.5392 11.3234C14.2631 12.0086 14.0499 13.1342 13.0052 13.7588Z" fill="#C4CDFB"/>
<path opacity="0.3" fill-rule="evenodd" clip-rule="evenodd" d="M21.2582 19.6999C21.2582 19.6999 24.2232 16.643 24.2316 11.7168C24.2316 7.28926 21.9606 2.34019 14.8183 0.453962C11.1739 -0.296969 5.82642 0.144316 1.98474 3.95633C7.23642 0.527143 15.236 1.23786 19.2869 4.90417C24.6801 9.97938 23.206 15.3612 21.1538 19.8105" fill="#8DA0F7"/>
</svg>
